<svg xmlns="http://www.w3.org/2000/svg" xmlns:v="https://svgstorm.com"
viewBox = "0 0 1733 577"
width="1733"
height="577">
<g fill="None" fill-opacity="0.0" stroke="#000000" stroke-opacity="0.00" stroke-width="0.3"><path d="
M 0.00 577.00 
L 1733.00 577.00
L 1733.00 0.00
L 0.00 0.00
L 0.00 577.00
M 255.00 172.00 
C 256.37 179.99 251.30 184.24 249.08 190.13 C 246.86 196.02 245.97 200.39 242.81 207.25 C 239.65 214.12 238.35 216.92 235.20 225.25 C 232.06 233.58 231.81 232.31 227.88 242.90 C 223.96 253.49 217.33 268.72 213.81 278.25 C 210.29 287.79 209.60 288.71 206.21 296.57 C 202.83 304.43 202.85 306.59 199.79 313.24 C 196.73 319.88 195.33 323.52 192.60 330.75 C 189.87 337.98 187.90 341.21 185.60 347.75 C 183.30 354.29 180.29 359.47 178.20 365.25 C 176.11 371.03 173.31 378.64 170.22 385.22 C 167.14 391.81 166.24 395.99 162.79 403.24 C 159.34 410.48 160.36 410.84 155.60 420.75 C 150.84 430.65 145.70 443.65 141.74 452.19 C 137.78 460.73 138.86 467.48 124.00 466.00 C 109.14 464.52 97.29 466.77 83.00 466.00 C 68.71 465.23 56.13 466.58 42.00 466.00
C 45.11 458.14 49.33 453.73 51.77 446.76 C 54.21 439.80 56.36 435.45 59.26 428.81 C 62.16 422.17 64.43 416.28 67.71 409.70 C 71.00 403.11 72.33 396.87 75.71 390.70 C 79.10 384.53 81.16 375.81 84.59 370.25 C 88.02 364.70 90.04 354.66 93.20 348.75 C 96.35 342.85 98.62 336.06 101.39 329.25 C 104.17 322.44 107.84 316.91 110.92 309.87 C 114.00 302.84 114.75 297.31 118.21 290.76 C 121.68 284.22 123.57 278.36 126.21 271.76 C 128.86 265.17 133.69 257.46 136.77 250.77 C 139.85 244.07 141.38 235.78 145.13 230.08 C 148.88 224.38 149.27 215.31 153.21 209.76 C 157.15 204.22 158.96 193.29 162.35 188.30 C 165.74 183.32 165.37 169.57 177.22 170.78 C 189.07 171.99 202.46 171.00 215.02 171.98 C 227.59 172.96 242.23 172.73 255.00 172.00
M 1523.00 475.00 
C 1518.21 479.63 1503.86 476.90 1497.00 477.00
C 1458.84 477.56 1417.62 475.44 1380.00 474.00
C 1372.55 475.24 1364.48 476.35 1356.00 475.00
C 1347.45 473.64 1338.78 473.42 1330.00 473.00
C 1339.00 476.36 1321.72 474.53 1318.00 475.00
C 1323.52 472.07 1315.99 473.41 1312.00 473.00 C 1308.01 472.59 1302.22 474.47 1298.00 474.00
C 1302.88 470.59 1289.82 472.18 1284.00 472.00 C 1278.18 471.82 1269.73 473.46 1263.00 473.00 C 1256.27 472.54 1248.14 473.23 1241.00 473.00 C 1233.86 472.77 1225.27 473.17 1218.00 473.00
C 1224.03 463.04 1224.25 455.85 1229.39 446.25 C 1234.54 436.64 1238.03 426.34 1242.13 418.08 C 1246.24 409.83 1249.99 397.75 1254.06 388.92 C 1258.14 380.09 1262.39 370.80 1267.30 361.30 C 1272.20 351.79 1271.06 344.16 1277.79 335.43 C 1284.51 326.70 1300.60 324.98 1309.00 323.00
C 1304.24 316.85 1300.12 310.16 1296.74 305.25 C 1293.35 300.34 1295.08 292.66 1298.06 286.92 C 1301.04 281.17 1303.72 276.53 1305.79 270.43 C 1307.86 264.33 1311.07 261.41 1312.92 255.87 C 1314.77 250.33 1317.29 245.29 1319.59 240.25 C 1321.90 235.21 1324.37 228.89 1326.92 223.87 C 1329.47 218.85 1330.83 212.49 1333.92 207.87 C 1337.01 203.25 1336.78 195.88 1340.59 192.25 C 1344.41 188.63 1341.44 174.85 1353.00 177.00 C 1364.56 179.15 1373.79 177.89 1385.22 178.22 C 1396.65 178.55 1406.24 180.09 1417.22 179.22 C 1428.21 178.35 1438.09 181.02 1450.07 180.93 C 1462.05 180.83 1474.78 179.61 1487.01 180.99 C 1499.24 182.38 1512.36 178.93 1525.00 180.00 C 1537.64 181.07 1551.27 179.20 1564.00 180.00
C 1562.75 183.80 1574.43 181.60 1581.00 182.00 C 1587.57 182.40 1595.81 182.24 1603.01 181.01 C 1610.20 179.78 1615.48 182.76 1622.00 183.00 C 1628.52 183.24 1636.54 181.60 1643.00 183.00
C 1636.76 198.49 1631.39 208.05 1626.36 220.71 C 1621.33 233.37 1616.14 246.21 1611.81 257.25 C 1607.48 268.30 1599.05 284.89 1595.36 295.71 C 1591.66 306.54 1577.98 321.02 1563.00 330.00
C 1566.06 343.19 1572.15 351.00 1569.36 361.71 C 1566.56 372.42 1560.91 380.39 1557.29 390.30 C 1553.67 400.21 1549.52 411.22 1545.61 420.75 C 1541.69 430.28 1538.39 435.61 1534.24 445.39 C 1530.09 455.17 1527.59 465.86 1523.00 475.00
M 1042.00 264.00 
C 1043.12 266.34 1037.44 270.46 1037.36 273.71 C 1037.27 276.96 1033.90 280.86 1032.74 284.19 C 1031.58 287.52 1030.37 293.83 1028.21 296.57 C 1026.06 299.31 1027.77 301.99 1024.07 308.07 C 1020.38 314.16 1017.58 322.29 1014.20 330.25 C 1010.82 338.21 1007.92 344.28 1005.36 351.71 C 1002.79 359.14 998.17 368.12 995.08 375.13 C 992.00 382.14 990.44 389.60 986.81 397.25 C 983.18 404.91 981.46 414.37 977.87 420.92 C 974.28 427.47 972.35 434.93 969.60 441.75 C 966.85 448.56 960.56 456.97 960.00 466.00
C 956.59 466.29 957.88 467.16 957.00 470.00
C 944.01 469.42 930.69 468.29 917.00 468.00
C 924.60 471.24 910.92 469.84 905.33 469.67 C 899.74 469.50 892.38 467.45 886.00 467.00 C 879.62 466.55 869.70 467.33 863.00 467.00
C 868.24 468.97 862.52 469.52 859.00 469.00 C 855.48 468.48 850.89 467.47 847.00 468.00
C 842.67 468.00 838.33 468.00 834.00 468.00
C 829.67 468.00 825.33 468.00 821.00 468.00
C 812.76 468.00 806.25 466.69 798.00 467.00
C 776.14 467.83 754.89 467.57 733.00 468.00
C 733.11 467.00 732.53 465.27 734.00 465.00
C 736.53 450.57 744.93 444.19 748.92 431.92 C 752.92 419.65 758.94 407.75 763.77 397.76 C 768.60 387.78 771.33 375.86 776.06 365.92 C 780.80 355.97 786.52 344.00 791.26 333.81 C 796.00 323.62 798.99 307.75 804.92 297.87 C 810.85 287.99 810.68 273.01 819.00 263.00
C 822.73 258.51 834.63 261.63 843.00 261.00 C 851.37 260.37 863.00 261.17 872.00 261.00 C 881.00 260.83 891.82 260.84 901.00 261.00 C 910.18 261.16 920.95 260.40 930.00 261.00 C 939.05 261.60 947.92 262.07 957.00 262.00 C 966.08 261.93 977.38 261.56 986.00 262.00 C 994.62 262.44 1007.53 260.76 1015.00 262.00 C 1022.47 263.24 1039.22 258.21 1042.00 264.00
M 1150.00 264.00 
C 1134.49 299.50 1122.52 332.05 1106.00 370.00
C 1141.11 335.06 1177.93 300.23 1211.00 264.00
C 1232.08 265.67 1254.95 265.66 1276.00 264.00
C 1270.25 273.05 1259.27 278.07 1252.25 286.25 C 1245.22 294.43 1237.77 302.45 1229.75 309.75 C 1221.72 317.04 1212.17 323.61 1204.75 332.75 C 1197.34 341.90 1189.85 349.26 1180.75 357.75 C 1171.65 366.25 1164.71 374.19 1155.30 382.30 C 1145.89 390.42 1139.73 396.29 1132.25 405.25 C 1124.77 414.21 1115.11 416.49 1108.81 427.25 C 1102.51 438.01 1092.46 441.48 1084.25 450.39 C 1076.04 459.30 1067.55 471.50 1052.00 468.00 C 1036.45 464.50 1016.92 470.62 1001.00 468.00
C 1012.39 443.49 1020.44 421.38 1031.20 397.75 C 1041.95 374.13 1050.05 353.95 1059.06 331.92 C 1068.08 309.88 1080.45 289.59 1089.00 263.00
C 1099.92 262.88 1107.40 265.69 1119.00 265.00 C 1130.60 264.31 1139.03 265.04 1150.00 264.00
M 307.00 287.00 
C 309.70 289.74 309.32 292.24 312.00 295.00
C 315.76 294.18 320.57 298.81 324.75 303.25 C 328.94 307.69 333.71 310.93 337.75 314.39 C 341.79 317.86 344.29 322.41 349.23 325.77 C 354.18 329.13 358.15 332.61 362.75 336.39 C 367.36 340.18 368.94 343.08 374.25 346.19 C 379.55 349.31 381.94 354.33 386.08 356.06 C 390.23 357.80 393.14 366.63 400.00 366.00
C 403.64 354.06 408.97 346.00 413.20 333.75 C 417.43 321.51 424.69 310.17 428.76 299.61 C 432.82 289.05 437.32 277.39 441.00 266.00
C 462.14 264.52 481.66 270.26 500.00 267.00
C 486.04 300.20 473.56 334.11 459.60 367.75 C 445.64 401.38 432.34 432.42 419.00 466.00
C 413.56 462.67 410.67 457.38 407.61 453.25 C 404.54 449.12 397.67 445.39 394.25 440.75 C 390.83 436.11 384.81 432.37 381.25 427.75 C 377.69 423.13 374.12 419.75 370.25 416.75 C 366.37 413.75 364.74 410.06 359.25 407.75 C 353.75 405.44 353.91 397.96 348.11 396.89 C 342.30 395.83 342.24 386.06 337.00 389.00
C 326.65 375.80 314.76 368.29 303.00 358.00
C 288.60 394.79 271.84 430.12 258.00 466.00
C 236.67 466.00 215.33 466.00 194.00 466.00
C 206.70 435.34 223.45 400.31 237.77 366.77 C 252.09 333.22 266.27 300.61 278.00 265.00
C 283.19 267.67 287.83 274.48 292.75 277.59 C 297.67 280.70 302.13 288.70 307.00 287.00
M 763.00 269.00 
C 759.64 280.61 756.37 287.40 752.36 296.71 C 748.34 306.02 745.75 314.88 741.60 324.75 C 737.45 334.62 733.12 343.56 729.36 352.71 C 725.59 361.87 721.74 373.95 717.79 382.24 C 713.83 390.52 710.31 401.66 706.60 409.75 C 702.89 417.83 698.98 428.81 695.21 437.57 C 691.45 446.33 690.14 461.06 680.00 465.00
C 658.68 443.54 641.63 425.07 622.75 408.81 C 603.87 392.54 584.78 374.82 567.00 359.00
C 559.35 379.73 551.35 395.34 543.87 413.92 C 536.39 432.49 528.65 447.87 522.00 468.00
C 500.67 468.00 479.33 468.00 458.00 468.00
C 467.86 445.86 476.56 423.33 486.06 400.92 C 495.57 378.51 505.23 360.50 514.91 336.90 C 524.58 313.30 532.85 295.83 540.00 270.00
C 541.80 270.78 544.13 268.80 546.00 269.00
C 552.44 276.41 562.52 282.10 568.59 288.75 C 574.65 295.40 581.29 298.30 587.25 304.19 C 593.21 310.09 602.44 315.56 607.00 324.00
C 610.08 319.92 611.51 326.93 613.00 329.00
C 616.22 324.99 618.63 332.69 620.00 335.00
C 625.56 333.37 626.71 342.19 632.75 345.25 C 638.80 348.30 642.18 351.18 647.25 355.75 C 652.32 360.33 656.81 366.64 663.00 370.00
C 675.76 335.91 693.43 299.70 705.00 268.00
C 723.56 270.67 743.34 269.74 763.00 269.00 Z"/>
</g>
<g fill="None" fill-opacity="0.0" stroke="#000000" stroke-opacity="0.99" stroke-width="0.3"><path d="
M 255.00 172.00 
C 242.23 172.73 227.59 172.96 215.02 171.98 C 202.46 171.00 189.07 171.99 177.22 170.78 C 165.37 169.57 165.74 183.32 162.35 188.30 C 158.96 193.29 157.15 204.22 153.21 209.76 C 149.27 215.31 148.88 224.38 145.13 230.08 C 141.38 235.78 139.85 244.07 136.77 250.77 C 133.69 257.46 128.86 265.17 126.21 271.76 C 123.57 278.36 121.68 284.22 118.21 290.76 C 114.75 297.31 114.00 302.84 110.92 309.87 C 107.84 316.91 104.17 322.44 101.39 329.25 C 98.62 336.06 96.35 342.85 93.20 348.75 C 90.04 354.66 88.02 364.70 84.59 370.25 C 81.16 375.81 79.10 384.53 75.71 390.70 C 72.33 396.87 71.00 403.11 67.71 409.70 C 64.43 416.28 62.16 422.17 59.26 428.81 C 56.36 435.45 54.21 439.80 51.77 446.76 C 49.33 453.73 45.11 458.14 42.00 466.00
C 56.13 466.58 68.71 465.23 83.00 466.00 C 97.29 466.77 109.14 464.52 124.00 466.00 C 138.86 467.48 137.78 460.73 141.74 452.19 C 145.70 443.65 150.84 430.65 155.60 420.75 C 160.36 410.84 159.34 410.48 162.79 403.24 C 166.24 395.99 167.14 391.81 170.22 385.22 C 173.31 378.64 176.11 371.03 178.20 365.25 C 180.29 359.47 183.30 354.29 185.60 347.75 C 187.90 341.21 189.87 337.98 192.60 330.75 C 195.33 323.52 196.73 319.88 199.79 313.24 C 202.85 306.59 202.83 304.43 206.21 296.57 C 209.60 288.71 210.29 287.79 213.81 278.25 C 217.33 268.72 223.96 253.49 227.88 242.90 C 231.81 232.31 232.06 233.58 235.20 225.25 C 238.35 216.92 239.65 214.12 242.81 207.25 C 245.97 200.39 246.86 196.02 249.08 190.13 C 251.30 184.24 256.37 179.99 255.00 172.00 Z"/>
</g>
<g fill="None" fill-opacity="0.0" stroke="#000000" stroke-opacity="0.99" stroke-width="0.3"><path d="
M 1356.00 475.00 
C 1363.25 474.69 1372.02 473.70 1380.00 474.00
C 1417.62 475.44 1458.84 477.56 1497.00 477.00
C 1497.59 476.78 1504.48 473.49 1509.00 475.00 C 1513.52 476.51 1519.57 473.66 1523.00 475.00
C 1527.59 465.86 1530.09 455.17 1534.24 445.39 C 1538.39 435.61 1541.69 430.28 1545.61 420.75 C 1549.52 411.22 1553.67 400.21 1557.29 390.30 C 1560.91 380.39 1566.56 372.42 1569.36 361.71 C 1572.15 351.00 1566.06 343.19 1563.00 330.00
C 1577.98 321.02 1591.66 306.54 1595.36 295.71 C 1599.05 284.89 1607.48 268.30 1611.81 257.25 C 1616.14 246.21 1621.33 233.37 1626.36 220.71 C 1631.39 208.05 1636.76 198.49 1643.00 183.00
C 1636.54 181.60 1628.52 183.24 1622.00 183.00 C 1615.48 182.76 1610.20 179.78 1603.01 181.01 C 1595.81 182.24 1587.57 182.40 1581.00 182.00 C 1574.43 181.60 1562.75 183.80 1564.00 180.00
C 1551.27 179.20 1537.64 181.07 1525.00 180.00 C 1512.36 178.93 1499.24 182.38 1487.01 180.99 C 1474.78 179.61 1462.05 180.83 1450.07 180.93 C 1438.09 181.02 1428.21 178.35 1417.22 179.22 C 1406.24 180.09 1396.65 178.55 1385.22 178.22 C 1373.79 177.89 1364.56 179.15 1353.00 177.00 C 1341.44 174.85 1344.41 188.63 1340.59 192.25 C 1336.78 195.88 1337.01 203.25 1333.92 207.87 C 1330.83 212.49 1329.47 218.85 1326.92 223.87 C 1324.37 228.89 1321.90 235.21 1319.59 240.25 C 1317.29 245.29 1314.77 250.33 1312.92 255.87 C 1311.07 261.41 1307.86 264.33 1305.79 270.43 C 1303.72 276.53 1301.04 281.17 1298.06 286.92 C 1295.08 292.66 1293.35 300.34 1296.74 305.25 C 1300.12 310.16 1304.24 316.85 1309.00 323.00
C 1300.60 324.98 1284.51 326.70 1277.79 335.43 C 1271.06 344.16 1272.20 351.79 1267.30 361.30 C 1262.39 370.80 1258.14 380.09 1254.06 388.92 C 1249.99 397.75 1246.24 409.83 1242.13 418.08 C 1238.03 426.34 1234.54 436.64 1229.39 446.25 C 1224.25 455.85 1224.03 463.04 1218.00 473.00
C 1225.27 473.17 1233.86 472.77 1241.00 473.00 C 1248.14 473.23 1256.27 472.54 1263.00 473.00 C 1269.73 473.46 1278.18 471.82 1284.00 472.00 C 1289.82 472.18 1302.88 470.59 1298.00 474.00
C 1302.22 474.47 1308.01 472.59 1312.00 473.00 C 1315.99 473.41 1323.52 472.07 1318.00 475.00
C 1321.72 474.53 1339.00 476.36 1330.00 473.00
C 1338.78 473.42 1347.45 473.64 1356.00 475.00
M 1437.00 236.00 
C 1434.97 238.90 1448.52 238.85 1454.00 238.00 C 1459.48 237.15 1466.80 237.99 1473.00 238.00 C 1479.20 238.01 1485.01 237.81 1491.22 238.78 C 1497.43 239.75 1504.79 237.04 1511.02 238.02 C 1517.26 239.01 1524.08 240.45 1531.00 239.00
C 1527.61 250.15 1522.23 258.77 1518.36 268.71 C 1514.48 278.66 1510.39 284.97 1507.00 298.00
C 1465.99 298.00 1425.01 298.00 1384.00 298.00
C 1389.51 286.35 1392.79 277.38 1396.80 266.75 C 1400.81 256.12 1406.98 245.92 1409.00 235.00
C 1418.64 234.34 1427.78 237.88 1437.00 236.00
M 1389.00 355.00 
C 1402.94 355.00 1410.80 354.55 1425.00 356.00
C 1417.29 350.59 1433.87 357.02 1439.00 356.00 C 1444.13 354.98 1452.78 358.34 1460.00 357.00 C 1467.22 355.66 1472.06 354.50 1481.00 356.00
C 1475.38 366.44 1471.85 377.06 1467.94 387.08 C 1464.03 397.11 1456.29 406.82 1455.00 418.00
C 1415.01 418.00 1374.99 418.00 1335.00 418.00
C 1344.26 394.22 1353.29 375.77 1361.00 353.00
C 1365.33 353.00 1369.67 353.00 1374.00 353.00
C 1376.97 353.00 1380.04 354.28 1383.00 353.00 C 1385.96 351.72 1389.77 355.20 1389.00 355.00 Z"/>
</g>
<g fill="None" fill-opacity="0.0" stroke="#000000" stroke-opacity="0.01" stroke-width="0.3"><path d="
M 1437.00 236.00 
C 1427.78 237.88 1418.64 234.34 1409.00 235.00
C 1406.98 245.92 1400.81 256.12 1396.80 266.75 C 1392.79 277.38 1389.51 286.35 1384.00 298.00
C 1425.01 298.00 1465.99 298.00 1507.00 298.00
C 1510.39 284.97 1514.48 278.66 1518.36 268.71 C 1522.23 258.77 1527.61 250.15 1531.00 239.00
C 1524.08 240.45 1517.26 239.01 1511.02 238.02 C 1504.79 237.04 1497.43 239.75 1491.22 238.78 C 1485.01 237.81 1479.20 238.01 1473.00 238.00 C 1466.80 237.99 1459.48 237.15 1454.00 238.00 C 1448.52 238.85 1434.97 238.90 1437.00 236.00 Z"/>
</g>
<g fill="None" fill-opacity="0.0" stroke="#000000" stroke-opacity="0.44" stroke-width="0.3"><path d="
M 819.00 263.00 
C 830.34 259.58 844.08 264.53 856.00 263.00 C 867.92 261.47 880.77 263.65 893.00 263.00 C 905.23 262.35 918.67 263.26 931.00 263.00 C 943.33 262.74 955.68 263.03 968.00 263.00 C 980.32 262.97 992.70 262.81 1005.00 263.00 C 1017.30 263.19 1030.16 262.04 1042.00 264.00
C 1039.22 258.21 1022.47 263.24 1015.00 262.00 C 1007.53 260.76 994.62 262.44 986.00 262.00 C 977.38 261.56 966.08 261.93 957.00 262.00 C 947.92 262.07 939.05 261.60 930.00 261.00 C 920.95 260.40 910.18 261.16 901.00 261.00 C 891.82 260.84 881.00 260.83 872.00 261.00 C 863.00 261.17 851.37 260.37 843.00 261.00 C 834.63 261.63 822.73 258.51 819.00 263.00 Z"/>
</g>
<g fill="None" fill-opacity="0.0" stroke="#000000" stroke-opacity="0.99" stroke-width="0.3"><path d="
M 734.00 465.00 
C 754.34 466.64 777.70 465.81 798.00 467.00
C 806.25 466.69 812.76 468.00 821.00 468.00
C 823.58 467.46 828.36 466.00 833.00 466.00
C 838.29 466.00 843.77 467.32 847.00 468.00
C 850.89 467.47 855.48 468.48 859.00 469.00 C 862.52 469.52 868.24 468.97 863.00 467.00
C 869.70 467.33 879.62 466.55 886.00 467.00 C 892.38 467.45 899.74 469.50 905.33 469.67 C 910.92 469.84 924.60 471.24 917.00 468.00
C 930.69 468.29 944.01 469.42 957.00 470.00
C 957.88 467.16 956.59 466.29 960.00 466.00
C 960.56 456.97 966.85 448.56 969.60 441.75 C 972.35 434.93 974.28 427.47 977.87 420.92 C 981.46 414.37 983.18 404.91 986.81 397.25 C 990.44 389.60 992.00 382.14 995.08 375.13 C 998.17 368.12 1002.79 359.14 1005.36 351.71 C 1007.92 344.28 1010.82 338.21 1014.20 330.25 C 1017.58 322.29 1020.38 314.16 1024.07 308.07 C 1027.77 301.99 1026.06 299.31 1028.21 296.57 C 1030.37 293.83 1031.58 287.52 1032.74 284.19 C 1033.90 280.86 1037.27 276.96 1037.36 273.71 C 1037.44 270.46 1043.12 266.34 1042.00 264.00
C 1030.16 262.04 1017.30 263.19 1005.00 263.00 C 992.70 262.81 980.32 262.97 968.00 263.00 C 955.68 263.03 943.33 262.74 931.00 263.00 C 918.67 263.26 905.23 262.35 893.00 263.00 C 880.77 263.65 867.92 261.47 856.00 263.00 C 844.08 264.53 830.34 259.58 819.00 263.00
C 810.68 273.01 810.85 287.99 804.92 297.87 C 798.99 307.75 796.00 323.62 791.26 333.81 C 786.52 344.00 780.80 355.97 776.06 365.92 C 771.33 375.86 768.60 387.78 763.77 397.76 C 758.94 407.75 752.92 419.65 748.92 431.92 C 744.93 444.19 736.53 450.57 734.00 465.00
M 919.00 409.00 
C 914.48 414.35 902.10 410.00 895.00 411.00 C 887.90 412.00 876.39 410.76 869.00 411.00 C 861.61 411.24 849.83 411.36 843.00 411.00 C 836.17 410.64 820.82 413.86 822.00 407.00
C 823.74 396.93 832.56 387.63 834.91 377.90 C 837.25 368.17 844.52 356.75 847.26 347.81 C 850.00 338.87 856.71 326.67 858.00 318.00
C 891.39 319.97 922.59 320.88 957.00 320.00
C 944.25 350.03 930.02 379.68 919.00 409.00 Z"/>
</g>
<g fill="None" fill-opacity="0.0" stroke="#000000" stroke-opacity="0.98" stroke-width="0.3"><path d="
M 1150.00 264.00 
C 1139.03 265.04 1130.60 264.31 1119.00 265.00 C 1107.40 265.69 1099.92 262.88 1089.00 263.00
C 1080.45 289.59 1068.08 309.88 1059.06 331.92 C 1050.05 353.95 1041.95 374.13 1031.20 397.75 C 1020.44 421.38 1012.39 443.49 1001.00 468.00
C 1016.92 470.62 1036.45 464.50 1052.00 468.00 C 1067.55 471.50 1076.04 459.30 1084.25 450.39 C 1092.46 441.48 1102.51 438.01 1108.81 427.25 C 1115.11 416.49 1124.77 414.21 1132.25 405.25 C 1139.73 396.29 1145.89 390.42 1155.30 382.30 C 1164.71 374.19 1171.65 366.25 1180.75 357.75 C 1189.85 349.26 1197.34 341.90 1204.75 332.75 C 1212.17 323.61 1221.72 317.04 1229.75 309.75 C 1237.77 302.45 1245.22 294.43 1252.25 286.25 C 1259.27 278.07 1270.25 273.05 1276.00 264.00
C 1254.95 265.66 1232.08 265.67 1211.00 264.00
C 1177.93 300.23 1141.11 335.06 1106.00 370.00
C 1122.52 332.05 1134.49 299.50 1150.00 264.00 Z"/>
</g>
<g fill="None" fill-opacity="0.0" stroke="#000000" stroke-opacity="0.98" stroke-width="0.3"><path d="
M 307.00 287.00 
C 302.13 288.70 297.67 280.70 292.75 277.59 C 287.83 274.48 283.19 267.67 278.00 265.00
C 266.27 300.61 252.09 333.22 237.77 366.77 C 223.45 400.31 206.70 435.34 194.00 466.00
C 215.33 466.00 236.67 466.00 258.00 466.00
C 271.84 430.12 288.60 394.79 303.00 358.00
C 314.76 368.29 326.65 375.80 337.00 389.00
C 342.24 386.06 342.30 395.83 348.11 396.89 C 353.91 397.96 353.75 405.44 359.25 407.75 C 364.74 410.06 366.37 413.75 370.25 416.75 C 374.12 419.75 377.69 423.13 381.25 427.75 C 384.81 432.37 390.83 436.11 394.25 440.75 C 397.67 445.39 404.54 449.12 407.61 453.25 C 410.67 457.38 413.56 462.67 419.00 466.00
C 432.34 432.42 445.64 401.38 459.60 367.75 C 473.56 334.11 486.04 300.20 500.00 267.00
C 481.66 270.26 462.14 264.52 441.00 266.00
C 437.32 277.39 432.82 289.05 428.76 299.61 C 424.69 310.17 417.43 321.51 413.20 333.75 C 408.97 346.00 403.64 354.06 400.00 366.00
C 393.14 366.63 390.23 357.80 386.08 356.06 C 381.94 354.33 379.55 349.31 374.25 346.19 C 368.94 343.08 367.36 340.18 362.75 336.39 C 358.15 332.61 354.18 329.13 349.23 325.77 C 344.29 322.41 341.79 317.86 337.75 314.39 C 333.71 310.93 328.94 307.69 324.75 303.25 C 320.57 298.81 315.76 294.18 312.00 295.00
C 309.32 292.24 309.70 289.74 307.00 287.00 Z"/>
</g>
<g fill="None" fill-opacity="0.0" stroke="#000000" stroke-opacity="0.98" stroke-width="0.3"><path d="
M 763.00 269.00 
C 743.34 269.74 723.56 270.67 705.00 268.00
C 693.43 299.70 675.76 335.91 663.00 370.00
C 656.81 366.64 652.32 360.33 647.25 355.75 C 642.18 351.18 638.80 348.30 632.75 345.25 C 626.71 342.19 625.56 333.37 620.00 335.00
C 618.63 332.69 616.22 324.99 613.00 329.00
C 611.51 326.93 610.08 319.92 607.00 324.00
C 602.44 315.56 593.21 310.09 587.25 304.19 C 581.29 298.30 574.65 295.40 568.59 288.75 C 562.52 282.10 552.44 276.41 546.00 269.00
C 544.13 268.80 541.80 270.78 540.00 270.00
C 532.85 295.83 524.58 313.30 514.91 336.90 C 505.23 360.50 495.57 378.51 486.06 400.92 C 476.56 423.33 467.86 445.86 458.00 468.00
C 479.33 468.00 500.67 468.00 522.00 468.00
C 528.65 447.87 536.39 432.49 543.87 413.92 C 551.35 395.34 559.35 379.73 567.00 359.00
C 584.78 374.82 603.87 392.54 622.75 408.81 C 641.63 425.07 658.68 443.54 680.00 465.00
C 690.14 461.06 691.45 446.33 695.21 437.57 C 698.98 428.81 702.89 417.83 706.60 409.75 C 710.31 401.66 713.83 390.52 717.79 382.24 C 721.74 373.95 725.59 361.87 729.36 352.71 C 733.12 343.56 737.45 334.62 741.60 324.75 C 745.75 314.88 748.34 306.02 752.36 296.71 C 756.37 287.40 759.64 280.61 763.00 269.00 Z"/>
</g>
<g fill="None" fill-opacity="0.0" stroke="#000000" stroke-opacity="0.01" stroke-width="0.3"><path d="
M 822.00 407.00 
C 836.34 411.11 854.05 408.40 870.00 409.00 C 885.95 409.60 903.70 408.59 919.00 409.00
C 930.02 379.68 944.25 350.03 957.00 320.00
C 922.59 320.88 891.39 319.97 858.00 318.00
C 856.71 326.67 850.00 338.87 847.26 347.81 C 844.52 356.75 837.25 368.17 834.91 377.90 C 832.56 387.63 823.74 396.93 822.00 407.00 Z"/>
</g>
<g fill="None" fill-opacity="0.0" stroke="#000000" stroke-opacity="0.02" stroke-width="0.3"><path d="
M 1389.00 355.00 
C 1383.33 355.00 1377.67 355.00 1372.00 355.00
C 1372.08 353.74 1374.06 354.44 1374.00 353.00
C 1369.67 353.00 1365.33 353.00 1361.00 353.00
C 1353.29 375.77 1344.26 394.22 1335.00 418.00
C 1374.99 418.00 1415.01 418.00 1455.00 418.00
C 1456.29 406.82 1464.03 397.11 1467.94 387.08 C 1471.85 377.06 1475.38 366.44 1481.00 356.00
C 1472.06 354.50 1467.22 355.66 1460.00 357.00 C 1452.78 358.34 1444.13 354.98 1439.00 356.00 C 1433.87 357.02 1417.29 350.59 1425.00 356.00
C 1410.80 354.55 1402.94 355.00 1389.00 355.00 Z"/>
</g>
<g fill="None" fill-opacity="0.0" stroke="#000000" stroke-opacity="0.64" stroke-width="0.3"><path d="
M 1389.00 355.00 
C 1389.77 355.20 1385.96 351.72 1383.00 353.00 C 1380.04 354.28 1376.97 353.00 1374.00 353.00
C 1374.06 354.44 1372.08 353.74 1372.00 355.00
C 1377.67 355.00 1383.33 355.00 1389.00 355.00 Z"/>
</g>
<g fill="None" fill-opacity="0.0" stroke="#000000" stroke-opacity="0.51" stroke-width="0.3"><path d="
M 919.00 409.00 
C 903.70 408.59 885.95 409.60 870.00 409.00 C 854.05 408.40 836.34 411.11 822.00 407.00
C 820.82 413.86 836.17 410.64 843.00 411.00 C 849.83 411.36 861.61 411.24 869.00 411.00 C 876.39 410.76 887.90 412.00 895.00 411.00 C 902.10 410.00 914.48 414.35 919.00 409.00 Z"/>
</g>
<g fill="None" fill-opacity="0.0" stroke="#000000" stroke-opacity="0.50" stroke-width="0.3"><path d="
M 798.00 467.00 
C 777.70 465.81 754.34 466.64 734.00 465.00
C 732.53 465.27 733.11 467.00 733.00 468.00
C 754.89 467.57 776.14 467.83 798.00 467.00 Z"/>
</g>
<g fill="None" fill-opacity="0.0" stroke="#000000" stroke-opacity="0.49" stroke-width="0.3"><path d="
M 821.00 468.00 
C 825.33 468.00 829.67 468.00 834.00 468.00
C 833.59 467.81 833.26 466.12 833.00 466.00
C 828.36 466.00 823.58 467.46 821.00 468.00 Z"/>
</g>
<g fill="None" fill-opacity="0.0" stroke="#000000" stroke-opacity="0.65" stroke-width="0.3"><path d="
M 834.00 468.00 
C 838.33 468.00 842.67 468.00 847.00 468.00
C 843.77 467.32 838.29 466.00 833.00 466.00
C 833.26 466.12 833.59 467.81 834.00 468.00 Z"/>
</g>
<g fill="None" fill-opacity="0.0" stroke="#000000" stroke-opacity="0.43" stroke-width="0.3"><path d="
M 1356.00 475.00 
C 1364.48 476.35 1372.55 475.24 1380.00 474.00
C 1372.02 473.70 1363.25 474.69 1356.00 475.00 Z"/>
</g>
<g fill="None" fill-opacity="0.0" stroke="#000000" stroke-opacity="0.50" stroke-width="0.3"><path d="
M 1497.00 477.00 
C 1503.86 476.90 1518.21 479.63 1523.00 475.00
C 1519.57 473.66 1513.52 476.51 1509.00 475.00 C 1504.48 473.49 1497.59 476.78 1497.00 477.00 Z"/>
</g>
<g fill="#000000" fill-opacity="0.00" stroke="None">
<path d="
M 0.00 577.00 
L 1733.00 577.00
L 1733.00 0.00
L 0.00 0.00
L 0.00 577.00
M 255.00 172.00 
C 256.37 179.99 251.30 184.24 249.08 190.13 C 246.86 196.02 245.97 200.39 242.81 207.25 C 239.65 214.12 238.35 216.92 235.20 225.25 C 232.06 233.58 231.81 232.31 227.88 242.90 C 223.96 253.49 217.33 268.72 213.81 278.25 C 210.29 287.79 209.60 288.71 206.21 296.57 C 202.83 304.43 202.85 306.59 199.79 313.24 C 196.73 319.88 195.33 323.52 192.60 330.75 C 189.87 337.98 187.90 341.21 185.60 347.75 C 183.30 354.29 180.29 359.47 178.20 365.25 C 176.11 371.03 173.31 378.64 170.22 385.22 C 167.14 391.81 166.24 395.99 162.79 403.24 C 159.34 410.48 160.36 410.84 155.60 420.75 C 150.84 430.65 145.70 443.65 141.74 452.19 C 137.78 460.73 138.86 467.48 124.00 466.00 C 109.14 464.52 97.29 466.77 83.00 466.00 C 68.71 465.23 56.13 466.58 42.00 466.00
C 45.11 458.14 49.33 453.73 51.77 446.76 C 54.21 439.80 56.36 435.45 59.26 428.81 C 62.16 422.17 64.43 416.28 67.71 409.70 C 71.00 403.11 72.33 396.87 75.71 390.70 C 79.10 384.53 81.16 375.81 84.59 370.25 C 88.02 364.70 90.04 354.66 93.20 348.75 C 96.35 342.85 98.62 336.06 101.39 329.25 C 104.17 322.44 107.84 316.91 110.92 309.87 C 114.00 302.84 114.75 297.31 118.21 290.76 C 121.68 284.22 123.57 278.36 126.21 271.76 C 128.86 265.17 133.69 257.46 136.77 250.77 C 139.85 244.07 141.38 235.78 145.13 230.08 C 148.88 224.38 149.27 215.31 153.21 209.76 C 157.15 204.22 158.96 193.29 162.35 188.30 C 165.74 183.32 165.37 169.57 177.22 170.78 C 189.07 171.99 202.46 171.00 215.02 171.98 C 227.59 172.96 242.23 172.73 255.00 172.00
M 1523.00 475.00 
C 1518.21 479.63 1503.86 476.90 1497.00 477.00
C 1458.84 477.56 1417.62 475.44 1380.00 474.00
C 1372.55 475.24 1364.48 476.35 1356.00 475.00
C 1347.45 473.64 1338.78 473.42 1330.00 473.00
C 1339.00 476.36 1321.72 474.53 1318.00 475.00
C 1323.52 472.07 1315.99 473.41 1312.00 473.00 C 1308.01 472.59 1302.22 474.47 1298.00 474.00
C 1302.88 470.59 1289.82 472.18 1284.00 472.00 C 1278.18 471.82 1269.73 473.46 1263.00 473.00 C 1256.27 472.54 1248.14 473.23 1241.00 473.00 C 1233.86 472.77 1225.27 473.17 1218.00 473.00
C 1224.03 463.04 1224.25 455.85 1229.39 446.25 C 1234.54 436.64 1238.03 426.34 1242.13 418.08 C 1246.24 409.83 1249.99 397.75 1254.06 388.92 C 1258.14 380.09 1262.39 370.80 1267.30 361.30 C 1272.20 351.79 1271.06 344.16 1277.79 335.43 C 1284.51 326.70 1300.60 324.98 1309.00 323.00
C 1304.24 316.85 1300.12 310.16 1296.74 305.25 C 1293.35 300.34 1295.08 292.66 1298.06 286.92 C 1301.04 281.17 1303.72 276.53 1305.79 270.43 C 1307.86 264.33 1311.07 261.41 1312.92 255.87 C 1314.77 250.33 1317.29 245.29 1319.59 240.25 C 1321.90 235.21 1324.37 228.89 1326.92 223.87 C 1329.47 218.85 1330.83 212.49 1333.92 207.87 C 1337.01 203.25 1336.78 195.88 1340.59 192.25 C 1344.41 188.63 1341.44 174.85 1353.00 177.00 C 1364.56 179.15 1373.79 177.89 1385.22 178.22 C 1396.65 178.55 1406.24 180.09 1417.22 179.22 C 1428.21 178.35 1438.09 181.02 1450.07 180.93 C 1462.05 180.83 1474.78 179.61 1487.01 180.99 C 1499.24 182.38 1512.36 178.93 1525.00 180.00 C 1537.64 181.07 1551.27 179.20 1564.00 180.00
C 1562.75 183.80 1574.43 181.60 1581.00 182.00 C 1587.57 182.40 1595.81 182.24 1603.01 181.01 C 1610.20 179.78 1615.48 182.76 1622.00 183.00 C 1628.52 183.24 1636.54 181.60 1643.00 183.00
C 1636.76 198.49 1631.39 208.05 1626.36 220.71 C 1621.33 233.37 1616.14 246.21 1611.81 257.25 C 1607.48 268.30 1599.05 284.89 1595.36 295.71 C 1591.66 306.54 1577.98 321.02 1563.00 330.00
C 1566.06 343.19 1572.15 351.00 1569.36 361.71 C 1566.56 372.42 1560.91 380.39 1557.29 390.30 C 1553.67 400.21 1549.52 411.22 1545.61 420.75 C 1541.69 430.28 1538.39 435.61 1534.24 445.39 C 1530.09 455.17 1527.59 465.86 1523.00 475.00
M 1042.00 264.00 
C 1043.12 266.34 1037.44 270.46 1037.36 273.71 C 1037.27 276.96 1033.90 280.86 1032.74 284.19 C 1031.58 287.52 1030.37 293.83 1028.21 296.57 C 1026.06 299.31 1027.77 301.99 1024.07 308.07 C 1020.38 314.16 1017.58 322.29 1014.20 330.25 C 1010.82 338.21 1007.92 344.28 1005.36 351.71 C 1002.79 359.14 998.17 368.12 995.08 375.13 C 992.00 382.14 990.44 389.60 986.81 397.25 C 983.18 404.91 981.46 414.37 977.87 420.92 C 974.28 427.47 972.35 434.93 969.60 441.75 C 966.85 448.56 960.56 456.97 960.00 466.00
C 956.59 466.29 957.88 467.16 957.00 470.00
C 944.01 469.42 930.69 468.29 917.00 468.00
C 924.60 471.24 910.92 469.84 905.33 469.67 C 899.74 469.50 892.38 467.45 886.00 467.00 C 879.62 466.55 869.70 467.33 863.00 467.00
C 868.24 468.97 862.52 469.52 859.00 469.00 C 855.48 468.48 850.89 467.47 847.00 468.00
C 842.67 468.00 838.33 468.00 834.00 468.00
C 829.67 468.00 825.33 468.00 821.00 468.00
C 812.76 468.00 806.25 466.69 798.00 467.00
C 776.14 467.83 754.89 467.57 733.00 468.00
C 733.11 467.00 732.53 465.27 734.00 465.00
C 736.53 450.57 744.93 444.19 748.92 431.92 C 752.92 419.65 758.94 407.75 763.77 397.76 C 768.60 387.78 771.33 375.86 776.06 365.92 C 780.80 355.97 786.52 344.00 791.26 333.81 C 796.00 323.62 798.99 307.75 804.92 297.87 C 810.85 287.99 810.68 273.01 819.00 263.00
C 822.73 258.51 834.63 261.63 843.00 261.00 C 851.37 260.37 863.00 261.17 872.00 261.00 C 881.00 260.83 891.82 260.84 901.00 261.00 C 910.18 261.16 920.95 260.40 930.00 261.00 C 939.05 261.60 947.92 262.07 957.00 262.00 C 966.08 261.93 977.38 261.56 986.00 262.00 C 994.62 262.44 1007.53 260.76 1015.00 262.00 C 1022.47 263.24 1039.22 258.21 1042.00 264.00
M 1150.00 264.00 
C 1134.49 299.50 1122.52 332.05 1106.00 370.00
C 1141.11 335.06 1177.93 300.23 1211.00 264.00
C 1232.08 265.67 1254.95 265.66 1276.00 264.00
C 1270.25 273.05 1259.27 278.07 1252.25 286.25 C 1245.22 294.43 1237.77 302.45 1229.75 309.75 C 1221.72 317.04 1212.17 323.61 1204.75 332.75 C 1197.34 341.90 1189.85 349.26 1180.75 357.75 C 1171.65 366.25 1164.71 374.19 1155.30 382.30 C 1145.89 390.42 1139.73 396.29 1132.25 405.25 C 1124.77 414.21 1115.11 416.49 1108.81 427.25 C 1102.51 438.01 1092.46 441.48 1084.25 450.39 C 1076.04 459.30 1067.55 471.50 1052.00 468.00 C 1036.45 464.50 1016.92 470.62 1001.00 468.00
C 1012.39 443.49 1020.44 421.38 1031.20 397.75 C 1041.95 374.13 1050.05 353.95 1059.06 331.92 C 1068.08 309.88 1080.45 289.59 1089.00 263.00
C 1099.92 262.88 1107.40 265.69 1119.00 265.00 C 1130.60 264.31 1139.03 265.04 1150.00 264.00
M 307.00 287.00 
C 309.70 289.74 309.32 292.24 312.00 295.00
C 315.76 294.18 320.57 298.81 324.75 303.25 C 328.94 307.69 333.71 310.93 337.75 314.39 C 341.79 317.86 344.29 322.41 349.23 325.77 C 354.18 329.13 358.15 332.61 362.75 336.39 C 367.36 340.18 368.94 343.08 374.25 346.19 C 379.55 349.31 381.94 354.33 386.08 356.06 C 390.23 357.80 393.14 366.63 400.00 366.00
C 403.64 354.06 408.97 346.00 413.20 333.75 C 417.43 321.51 424.69 310.17 428.76 299.61 C 432.82 289.05 437.32 277.39 441.00 266.00
C 462.14 264.52 481.66 270.26 500.00 267.00
C 486.04 300.20 473.56 334.11 459.60 367.75 C 445.64 401.38 432.34 432.42 419.00 466.00
C 413.56 462.67 410.67 457.38 407.61 453.25 C 404.54 449.12 397.67 445.39 394.25 440.75 C 390.83 436.11 384.81 432.37 381.25 427.75 C 377.69 423.13 374.12 419.75 370.25 416.75 C 366.37 413.75 364.74 410.06 359.25 407.75 C 353.75 405.44 353.91 397.96 348.11 396.89 C 342.30 395.83 342.24 386.06 337.00 389.00
C 326.65 375.80 314.76 368.29 303.00 358.00
C 288.60 394.79 271.84 430.12 258.00 466.00
C 236.67 466.00 215.33 466.00 194.00 466.00
C 206.70 435.34 223.45 400.31 237.77 366.77 C 252.09 333.22 266.27 300.61 278.00 265.00
C 283.19 267.67 287.83 274.48 292.75 277.59 C 297.67 280.70 302.13 288.70 307.00 287.00
M 763.00 269.00 
C 759.64 280.61 756.37 287.40 752.36 296.71 C 748.34 306.02 745.75 314.88 741.60 324.75 C 737.45 334.62 733.12 343.56 729.36 352.71 C 725.59 361.87 721.74 373.95 717.79 382.24 C 713.83 390.52 710.31 401.66 706.60 409.75 C 702.89 417.83 698.98 428.81 695.21 437.57 C 691.45 446.33 690.14 461.06 680.00 465.00
C 658.68 443.54 641.63 425.07 622.75 408.81 C 603.87 392.54 584.78 374.82 567.00 359.00
C 559.35 379.73 551.35 395.34 543.87 413.92 C 536.39 432.49 528.65 447.87 522.00 468.00
C 500.67 468.00 479.33 468.00 458.00 468.00
C 467.86 445.86 476.56 423.33 486.06 400.92 C 495.57 378.51 505.23 360.50 514.91 336.90 C 524.58 313.30 532.85 295.83 540.00 270.00
C 541.80 270.78 544.13 268.80 546.00 269.00
C 552.44 276.41 562.52 282.10 568.59 288.75 C 574.65 295.40 581.29 298.30 587.25 304.19 C 593.21 310.09 602.44 315.56 607.00 324.00
C 610.08 319.92 611.51 326.93 613.00 329.00
C 616.22 324.99 618.63 332.69 620.00 335.00
C 625.56 333.37 626.71 342.19 632.75 345.25 C 638.80 348.30 642.18 351.18 647.25 355.75 C 652.32 360.33 656.81 366.64 663.00 370.00
C 675.76 335.91 693.43 299.70 705.00 268.00
C 723.56 270.67 743.34 269.74 763.00 269.00 Z"/>
</g>
<g fill="#000000" fill-opacity="0.99" stroke="None">
<path d="
M 255.00 172.00 
C 242.23 172.73 227.59 172.96 215.02 171.98 C 202.46 171.00 189.07 171.99 177.22 170.78 C 165.37 169.57 165.74 183.32 162.35 188.30 C 158.96 193.29 157.15 204.22 153.21 209.76 C 149.27 215.31 148.88 224.38 145.13 230.08 C 141.38 235.78 139.85 244.07 136.77 250.77 C 133.69 257.46 128.86 265.17 126.21 271.76 C 123.57 278.36 121.68 284.22 118.21 290.76 C 114.75 297.31 114.00 302.84 110.92 309.87 C 107.84 316.91 104.17 322.44 101.39 329.25 C 98.62 336.06 96.35 342.85 93.20 348.75 C 90.04 354.66 88.02 364.70 84.59 370.25 C 81.16 375.81 79.10 384.53 75.71 390.70 C 72.33 396.87 71.00 403.11 67.71 409.70 C 64.43 416.28 62.16 422.17 59.26 428.81 C 56.36 435.45 54.21 439.80 51.77 446.76 C 49.33 453.73 45.11 458.14 42.00 466.00
C 56.13 466.58 68.71 465.23 83.00 466.00 C 97.29 466.77 109.14 464.52 124.00 466.00 C 138.86 467.48 137.78 460.73 141.74 452.19 C 145.70 443.65 150.84 430.65 155.60 420.75 C 160.36 410.84 159.34 410.48 162.79 403.24 C 166.24 395.99 167.14 391.81 170.22 385.22 C 173.31 378.64 176.11 371.03 178.20 365.25 C 180.29 359.47 183.30 354.29 185.60 347.75 C 187.90 341.21 189.87 337.98 192.60 330.75 C 195.33 323.52 196.73 319.88 199.79 313.24 C 202.85 306.59 202.83 304.43 206.21 296.57 C 209.60 288.71 210.29 287.79 213.81 278.25 C 217.33 268.72 223.96 253.49 227.88 242.90 C 231.81 232.31 232.06 233.58 235.20 225.25 C 238.35 216.92 239.65 214.12 242.81 207.25 C 245.97 200.39 246.86 196.02 249.08 190.13 C 251.30 184.24 256.37 179.99 255.00 172.00 Z"/>
</g>
<g fill="#000000" fill-opacity="0.99" stroke="None">
<path d="
M 1356.00 475.00 
C 1363.25 474.69 1372.02 473.70 1380.00 474.00
C 1417.62 475.44 1458.84 477.56 1497.00 477.00
C 1497.59 476.78 1504.48 473.49 1509.00 475.00 C 1513.52 476.51 1519.57 473.66 1523.00 475.00
C 1527.59 465.86 1530.09 455.17 1534.24 445.39 C 1538.39 435.61 1541.69 430.28 1545.61 420.75 C 1549.52 411.22 1553.67 400.21 1557.29 390.30 C 1560.91 380.39 1566.56 372.42 1569.36 361.71 C 1572.15 351.00 1566.06 343.19 1563.00 330.00
C 1577.98 321.02 1591.66 306.54 1595.36 295.71 C 1599.05 284.89 1607.48 268.30 1611.81 257.25 C 1616.14 246.21 1621.33 233.37 1626.36 220.71 C 1631.39 208.05 1636.76 198.49 1643.00 183.00
C 1636.54 181.60 1628.52 183.24 1622.00 183.00 C 1615.48 182.76 1610.20 179.78 1603.01 181.01 C 1595.81 182.24 1587.57 182.40 1581.00 182.00 C 1574.43 181.60 1562.75 183.80 1564.00 180.00
C 1551.27 179.20 1537.64 181.07 1525.00 180.00 C 1512.36 178.93 1499.24 182.38 1487.01 180.99 C 1474.78 179.61 1462.05 180.83 1450.07 180.93 C 1438.09 181.02 1428.21 178.35 1417.22 179.22 C 1406.24 180.09 1396.65 178.55 1385.22 178.22 C 1373.79 177.89 1364.56 179.15 1353.00 177.00 C 1341.44 174.85 1344.41 188.63 1340.59 192.25 C 1336.78 195.88 1337.01 203.25 1333.92 207.87 C 1330.83 212.49 1329.47 218.85 1326.92 223.87 C 1324.37 228.89 1321.90 235.21 1319.59 240.25 C 1317.29 245.29 1314.77 250.33 1312.92 255.87 C 1311.07 261.41 1307.86 264.33 1305.79 270.43 C 1303.72 276.53 1301.04 281.17 1298.06 286.92 C 1295.08 292.66 1293.35 300.34 1296.74 305.25 C 1300.12 310.16 1304.24 316.85 1309.00 323.00
C 1300.60 324.98 1284.51 326.70 1277.79 335.43 C 1271.06 344.16 1272.20 351.79 1267.30 361.30 C 1262.39 370.80 1258.14 380.09 1254.06 388.92 C 1249.99 397.75 1246.24 409.83 1242.13 418.08 C 1238.03 426.34 1234.54 436.64 1229.39 446.25 C 1224.25 455.85 1224.03 463.04 1218.00 473.00
C 1225.27 473.17 1233.86 472.77 1241.00 473.00 C 1248.14 473.23 1256.27 472.54 1263.00 473.00 C 1269.73 473.46 1278.18 471.82 1284.00 472.00 C 1289.82 472.18 1302.88 470.59 1298.00 474.00
C 1302.22 474.47 1308.01 472.59 1312.00 473.00 C 1315.99 473.41 1323.52 472.07 1318.00 475.00
C 1321.72 474.53 1339.00 476.36 1330.00 473.00
C 1338.78 473.42 1347.45 473.64 1356.00 475.00
M 1437.00 236.00 
C 1434.97 238.90 1448.52 238.85 1454.00 238.00 C 1459.48 237.15 1466.80 237.99 1473.00 238.00 C 1479.20 238.01 1485.01 237.81 1491.22 238.78 C 1497.43 239.75 1504.79 237.04 1511.02 238.02 C 1517.26 239.01 1524.08 240.45 1531.00 239.00
C 1527.61 250.15 1522.23 258.77 1518.36 268.71 C 1514.48 278.66 1510.39 284.97 1507.00 298.00
C 1465.99 298.00 1425.01 298.00 1384.00 298.00
C 1389.51 286.35 1392.79 277.38 1396.80 266.75 C 1400.81 256.12 1406.98 245.92 1409.00 235.00
C 1418.64 234.34 1427.78 237.88 1437.00 236.00
M 1389.00 355.00 
C 1402.94 355.00 1410.80 354.55 1425.00 356.00
C 1417.29 350.59 1433.87 357.02 1439.00 356.00 C 1444.13 354.98 1452.78 358.34 1460.00 357.00 C 1467.22 355.66 1472.06 354.50 1481.00 356.00
C 1475.38 366.44 1471.85 377.06 1467.94 387.08 C 1464.03 397.11 1456.29 406.82 1455.00 418.00
C 1415.01 418.00 1374.99 418.00 1335.00 418.00
C 1344.26 394.22 1353.29 375.77 1361.00 353.00
C 1365.33 353.00 1369.67 353.00 1374.00 353.00
C 1376.97 353.00 1380.04 354.28 1383.00 353.00 C 1385.96 351.72 1389.77 355.20 1389.00 355.00 Z"/>
</g>
<g fill="#000000" fill-opacity="0.01" stroke="None">
<path d="
M 1437.00 236.00 
C 1427.78 237.88 1418.64 234.34 1409.00 235.00
C 1406.98 245.92 1400.81 256.12 1396.80 266.75 C 1392.79 277.38 1389.51 286.35 1384.00 298.00
C 1425.01 298.00 1465.99 298.00 1507.00 298.00
C 1510.39 284.97 1514.48 278.66 1518.36 268.71 C 1522.23 258.77 1527.61 250.15 1531.00 239.00
C 1524.08 240.45 1517.26 239.01 1511.02 238.02 C 1504.79 237.04 1497.43 239.75 1491.22 238.78 C 1485.01 237.81 1479.20 238.01 1473.00 238.00 C 1466.80 237.99 1459.48 237.15 1454.00 238.00 C 1448.52 238.85 1434.97 238.90 1437.00 236.00 Z"/>
</g>
<g fill="#000000" fill-opacity="0.44" stroke="None">
<path d="
M 819.00 263.00 
C 830.34 259.58 844.08 264.53 856.00 263.00 C 867.92 261.47 880.77 263.65 893.00 263.00 C 905.23 262.35 918.67 263.26 931.00 263.00 C 943.33 262.74 955.68 263.03 968.00 263.00 C 980.32 262.97 992.70 262.81 1005.00 263.00 C 1017.30 263.19 1030.16 262.04 1042.00 264.00
C 1039.22 258.21 1022.47 263.24 1015.00 262.00 C 1007.53 260.76 994.62 262.44 986.00 262.00 C 977.38 261.56 966.08 261.93 957.00 262.00 C 947.92 262.07 939.05 261.60 930.00 261.00 C 920.95 260.40 910.18 261.16 901.00 261.00 C 891.82 260.84 881.00 260.83 872.00 261.00 C 863.00 261.17 851.37 260.37 843.00 261.00 C 834.63 261.63 822.73 258.51 819.00 263.00 Z"/>
</g>
<g fill="#000000" fill-opacity="0.99" stroke="None">
<path d="
M 734.00 465.00 
C 754.34 466.64 777.70 465.81 798.00 467.00
C 806.25 466.69 812.76 468.00 821.00 468.00
C 823.58 467.46 828.36 466.00 833.00 466.00
C 838.29 466.00 843.77 467.32 847.00 468.00
C 850.89 467.47 855.48 468.48 859.00 469.00 C 862.52 469.52 868.24 468.97 863.00 467.00
C 869.70 467.33 879.62 466.55 886.00 467.00 C 892.38 467.45 899.74 469.50 905.33 469.67 C 910.92 469.84 924.60 471.24 917.00 468.00
C 930.69 468.29 944.01 469.42 957.00 470.00
C 957.88 467.16 956.59 466.29 960.00 466.00
C 960.56 456.97 966.85 448.56 969.60 441.75 C 972.35 434.93 974.28 427.47 977.87 420.92 C 981.46 414.37 983.18 404.91 986.81 397.25 C 990.44 389.60 992.00 382.14 995.08 375.13 C 998.17 368.12 1002.79 359.14 1005.36 351.71 C 1007.92 344.28 1010.82 338.21 1014.20 330.25 C 1017.58 322.29 1020.38 314.16 1024.07 308.07 C 1027.77 301.99 1026.06 299.31 1028.21 296.57 C 1030.37 293.83 1031.58 287.52 1032.74 284.19 C 1033.90 280.86 1037.27 276.96 1037.36 273.71 C 1037.44 270.46 1043.12 266.34 1042.00 264.00
C 1030.16 262.04 1017.30 263.19 1005.00 263.00 C 992.70 262.81 980.32 262.97 968.00 263.00 C 955.68 263.03 943.33 262.74 931.00 263.00 C 918.67 263.26 905.23 262.35 893.00 263.00 C 880.77 263.65 867.92 261.47 856.00 263.00 C 844.08 264.53 830.34 259.58 819.00 263.00
C 810.68 273.01 810.85 287.99 804.92 297.87 C 798.99 307.75 796.00 323.62 791.26 333.81 C 786.52 344.00 780.80 355.97 776.06 365.92 C 771.33 375.86 768.60 387.78 763.77 397.76 C 758.94 407.75 752.92 419.65 748.92 431.92 C 744.93 444.19 736.53 450.57 734.00 465.00
M 919.00 409.00 
C 914.48 414.35 902.10 410.00 895.00 411.00 C 887.90 412.00 876.39 410.76 869.00 411.00 C 861.61 411.24 849.83 411.36 843.00 411.00 C 836.17 410.64 820.82 413.86 822.00 407.00
C 823.74 396.93 832.56 387.63 834.91 377.90 C 837.25 368.17 844.52 356.75 847.26 347.81 C 850.00 338.87 856.71 326.67 858.00 318.00
C 891.39 319.97 922.59 320.88 957.00 320.00
C 944.25 350.03 930.02 379.68 919.00 409.00 Z"/>
</g>
<g fill="#000000" fill-opacity="0.98" stroke="None">
<path d="
M 1150.00 264.00 
C 1139.03 265.04 1130.60 264.31 1119.00 265.00 C 1107.40 265.69 1099.92 262.88 1089.00 263.00
C 1080.45 289.59 1068.08 309.88 1059.06 331.92 C 1050.05 353.95 1041.95 374.13 1031.20 397.75 C 1020.44 421.38 1012.39 443.49 1001.00 468.00
C 1016.92 470.62 1036.45 464.50 1052.00 468.00 C 1067.55 471.50 1076.04 459.30 1084.25 450.39 C 1092.46 441.48 1102.51 438.01 1108.81 427.25 C 1115.11 416.49 1124.77 414.21 1132.25 405.25 C 1139.73 396.29 1145.89 390.42 1155.30 382.30 C 1164.71 374.19 1171.65 366.25 1180.75 357.75 C 1189.85 349.26 1197.34 341.90 1204.75 332.75 C 1212.17 323.61 1221.72 317.04 1229.75 309.75 C 1237.77 302.45 1245.22 294.43 1252.25 286.25 C 1259.27 278.07 1270.25 273.05 1276.00 264.00
C 1254.95 265.66 1232.08 265.67 1211.00 264.00
C 1177.93 300.23 1141.11 335.06 1106.00 370.00
C 1122.52 332.05 1134.49 299.50 1150.00 264.00 Z"/>
</g>
<g fill="#000000" fill-opacity="0.98" stroke="None">
<path d="
M 307.00 287.00 
C 302.13 288.70 297.67 280.70 292.75 277.59 C 287.83 274.48 283.19 267.67 278.00 265.00
C 266.27 300.61 252.09 333.22 237.77 366.77 C 223.45 400.31 206.70 435.34 194.00 466.00
C 215.33 466.00 236.67 466.00 258.00 466.00
C 271.84 430.12 288.60 394.79 303.00 358.00
C 314.76 368.29 326.65 375.80 337.00 389.00
C 342.24 386.06 342.30 395.83 348.11 396.89 C 353.91 397.96 353.75 405.44 359.25 407.75 C 364.74 410.06 366.37 413.75 370.25 416.75 C 374.12 419.75 377.69 423.13 381.25 427.75 C 384.81 432.37 390.83 436.11 394.25 440.75 C 397.67 445.39 404.54 449.12 407.61 453.25 C 410.67 457.38 413.56 462.67 419.00 466.00
C 432.34 432.42 445.64 401.38 459.60 367.75 C 473.56 334.11 486.04 300.20 500.00 267.00
C 481.66 270.26 462.14 264.52 441.00 266.00
C 437.32 277.39 432.82 289.05 428.76 299.61 C 424.69 310.17 417.43 321.51 413.20 333.75 C 408.97 346.00 403.64 354.06 400.00 366.00
C 393.14 366.63 390.23 357.80 386.08 356.06 C 381.94 354.33 379.55 349.31 374.25 346.19 C 368.94 343.08 367.36 340.18 362.75 336.39 C 358.15 332.61 354.18 329.13 349.23 325.77 C 344.29 322.41 341.79 317.86 337.75 314.39 C 333.71 310.93 328.94 307.69 324.75 303.25 C 320.57 298.81 315.76 294.18 312.00 295.00
C 309.32 292.24 309.70 289.74 307.00 287.00 Z"/>
</g>
<g fill="#000000" fill-opacity="0.98" stroke="None">
<path d="
M 763.00 269.00 
C 743.34 269.74 723.56 270.67 705.00 268.00
C 693.43 299.70 675.76 335.91 663.00 370.00
C 656.81 366.64 652.32 360.33 647.25 355.75 C 642.18 351.18 638.80 348.30 632.75 345.25 C 626.71 342.19 625.56 333.37 620.00 335.00
C 618.63 332.69 616.22 324.99 613.00 329.00
C 611.51 326.93 610.08 319.92 607.00 324.00
C 602.44 315.56 593.21 310.09 587.25 304.19 C 581.29 298.30 574.65 295.40 568.59 288.75 C 562.52 282.10 552.44 276.41 546.00 269.00
C 544.13 268.80 541.80 270.78 540.00 270.00
C 532.85 295.83 524.58 313.30 514.91 336.90 C 505.23 360.50 495.57 378.51 486.06 400.92 C 476.56 423.33 467.86 445.86 458.00 468.00
C 479.33 468.00 500.67 468.00 522.00 468.00
C 528.65 447.87 536.39 432.49 543.87 413.92 C 551.35 395.34 559.35 379.73 567.00 359.00
C 584.78 374.82 603.87 392.54 622.75 408.81 C 641.63 425.07 658.68 443.54 680.00 465.00
C 690.14 461.06 691.45 446.33 695.21 437.57 C 698.98 428.81 702.89 417.83 706.60 409.75 C 710.31 401.66 713.83 390.52 717.79 382.24 C 721.74 373.95 725.59 361.87 729.36 352.71 C 733.12 343.56 737.45 334.62 741.60 324.75 C 745.75 314.88 748.34 306.02 752.36 296.71 C 756.37 287.40 759.64 280.61 763.00 269.00 Z"/>
</g>
<g fill="#000000" fill-opacity="0.01" stroke="None">
<path d="
M 822.00 407.00 
C 836.34 411.11 854.05 408.40 870.00 409.00 C 885.95 409.60 903.70 408.59 919.00 409.00
C 930.02 379.68 944.25 350.03 957.00 320.00
C 922.59 320.88 891.39 319.97 858.00 318.00
C 856.71 326.67 850.00 338.87 847.26 347.81 C 844.52 356.75 837.25 368.17 834.91 377.90 C 832.56 387.63 823.74 396.93 822.00 407.00 Z"/>
</g>
<g fill="#000000" fill-opacity="0.02" stroke="None">
<path d="
M 1389.00 355.00 
C 1383.33 355.00 1377.67 355.00 1372.00 355.00
C 1372.08 353.74 1374.06 354.44 1374.00 353.00
C 1369.67 353.00 1365.33 353.00 1361.00 353.00
C 1353.29 375.77 1344.26 394.22 1335.00 418.00
C 1374.99 418.00 1415.01 418.00 1455.00 418.00
C 1456.29 406.82 1464.03 397.11 1467.94 387.08 C 1471.85 377.06 1475.38 366.44 1481.00 356.00
C 1472.06 354.50 1467.22 355.66 1460.00 357.00 C 1452.78 358.34 1444.13 354.98 1439.00 356.00 C 1433.87 357.02 1417.29 350.59 1425.00 356.00
C 1410.80 354.55 1402.94 355.00 1389.00 355.00 Z"/>
</g>
<g fill="#000000" fill-opacity="0.64" stroke="None">
<path d="
M 1389.00 355.00 
C 1389.77 355.20 1385.96 351.72 1383.00 353.00 C 1380.04 354.28 1376.97 353.00 1374.00 353.00
C 1374.06 354.44 1372.08 353.74 1372.00 355.00
C 1377.67 355.00 1383.33 355.00 1389.00 355.00 Z"/>
</g>
<g fill="#000000" fill-opacity="0.51" stroke="None">
<path d="
M 919.00 409.00 
C 903.70 408.59 885.95 409.60 870.00 409.00 C 854.05 408.40 836.34 411.11 822.00 407.00
C 820.82 413.86 836.17 410.64 843.00 411.00 C 849.83 411.36 861.61 411.24 869.00 411.00 C 876.39 410.76 887.90 412.00 895.00 411.00 C 902.10 410.00 914.48 414.35 919.00 409.00 Z"/>
</g>
<g fill="#000000" fill-opacity="0.50" stroke="None">
<path d="
M 798.00 467.00 
C 777.70 465.81 754.34 466.64 734.00 465.00
C 732.53 465.27 733.11 467.00 733.00 468.00
C 754.89 467.57 776.14 467.83 798.00 467.00 Z"/>
</g>
<g fill="#000000" fill-opacity="0.49" stroke="None">
<path d="
M 821.00 468.00 
C 825.33 468.00 829.67 468.00 834.00 468.00
C 833.59 467.81 833.26 466.12 833.00 466.00
C 828.36 466.00 823.58 467.46 821.00 468.00 Z"/>
</g>
<g fill="#000000" fill-opacity="0.65" stroke="None">
<path d="
M 834.00 468.00 
C 838.33 468.00 842.67 468.00 847.00 468.00
C 843.77 467.32 838.29 466.00 833.00 466.00
C 833.26 466.12 833.59 467.81 834.00 468.00 Z"/>
</g>
<g fill="#000000" fill-opacity="0.43" stroke="None">
<path d="
M 1356.00 475.00 
C 1364.48 476.35 1372.55 475.24 1380.00 474.00
C 1372.02 473.70 1363.25 474.69 1356.00 475.00 Z"/>
</g>
<g fill="#000000" fill-opacity="0.50" stroke="None">
<path d="
M 1497.00 477.00 
C 1503.86 476.90 1518.21 479.63 1523.00 475.00
C 1519.57 473.66 1513.52 476.51 1509.00 475.00 C 1504.48 473.49 1497.59 476.78 1497.00 477.00 Z"/>
</g>
</svg>